<?xml version="1.0" standalone="no"?>
<!DOCTYPE svg PUBLIC "-//W3C//DTD SVG 20010904//EN"
 "http://www.w3.org/TR/2001/REC-SVG-20010904/DTD/svg10.dtd">
<svg version="1.0" xmlns="http://www.w3.org/2000/svg"
 width="133.000000pt" height="129.000000pt" viewBox="0 0 133.000000 129.000000"
 preserveAspectRatio="xMidYMid meet">
<metadata>
Created by potrace 1.16, written by Peter Selinger 2001-2019
</metadata>
<g transform="translate(0.000000,129.000000) scale(0.100000,-0.100000)"
fill="#000000" stroke="none">
<path d="M888 1130 c-45 -13 -87 -49 -109 -93 -17 -33 -20 -53 -16 -99 5 -56
1 -64 -26 -59 -5 1 -6 -2 -3 -7 3 -5 -13 -19 -35 -31 l-40 -23 -41 37 c-60 55
-117 77 -198 77 -117 0 -212 -59 -268 -167 -34 -68 -36 -179 -3 -243 12 -23
19 -48 15 -54 -4 -6 -3 -8 4 -4 6 3 17 -3 25 -14 46 -65 173 -117 255 -105 66
9 131 40 174 82 l36 35 54 -32 53 -32 0 -72 c0 -65 3 -77 29 -110 99 -130 300
-77 322 85 12 90 -58 184 -145 196 -57 8 -106 -4 -141 -33 l-30 -26 -56 32
c-47 27 -55 36 -50 54 24 82 25 141 2 226 -6 22 -1 29 48 59 l56 33 31 -26
c38 -32 66 -40 130 -34 108 11 180 118 149 221 -16 53 -74 112 -125 126 -45
12 -59 13 -97 1z m143 -88 c54 -60 42 -152 -25 -194 -47 -29 -118 -20 -159 21
-28 28 -32 38 -32 86 0 48 4 59 31 86 55 55 135 55 185 1z m-512 -183 c59 -26
87 -53 117 -111 26 -52 33 -144 14 -194 -10 -24 -12 -25 -28 -12 -9 9 -31 23
-48 31 -30 15 -31 18 -26 65 9 97 -40 170 -120 179 -37 4 -49 1 -76 -22 -49
-41 -64 -77 -61 -147 3 -59 2 -61 -29 -74 -18 -7 -35 -13 -39 -13 -4 0 -10 -8
-14 -18 -11 -29 -31 32 -32 97 -1 96 60 189 147 225 48 20 142 18 195 -6z
m-54 -111 c28 -25 42 -80 31 -123 -10 -40 -41 -65 -81 -65 -29 0 -39 6 -55 33
-31 50 -27 112 9 148 35 35 61 37 96 7z m-100 -228 c49 -25 61 -25 110 0 40
20 85 20 85 -1 0 -6 4 -8 9 -5 4 3 16 -3 25 -13 16 -18 15 -20 -16 -46 -48
-40 -95 -58 -158 -58 -63 0 -123 22 -162 60 -31 29 -29 37 16 64 39 24 43 24
91 -1z m628 -85 c47 -23 70 -61 70 -112 0 -103 -113 -163 -200 -106 -74 49
-68 166 10 213 39 24 78 25 120 5z"/>
</g>
</svg>
